<?xml version="1.0" encoding="UTF-8" standalone="no"?>
<svg viewBox="0 0 120 55" xmlns="http://www.w3.org/2000/svg">
<g transform="translate(-214.14702,-545.82837)">
<path d="m267.6019,575.64899c-2.68893,1.19115-5.24863,3.94291-7.33049,7.73919-2.59143,4.7255-4.28448,10.86988-4.55426,16.72984h34.81202c-.32521-5.73739-1.9912-11.71776-4.52307-16.33465-1.94444-3.54569-4.30474-6.17221-6.80019-7.47573h-.0312c-1.56181.66029-3.23871,1.05385-5.02217,1.05385-2.35984,0-4.58077-.64257-6.55064-1.7125z" fill="#ff7f1a" opacity=".99"/>
<path d="m240.02679,576.57111c-4.99713,4.88399-8.77604,14.3453-9.51402,23.54692h22.2098c.26746-6.4431 2.07711-13.05404 4.95978-18.31061 .12483-.22765.27651-.43572.40551-.65866-.82405-1.36158-1.73564-2.59136-2.68264-3.65554-2.05238,1.35856-4.42507,2.27237-7.01856,2.27237-3.17463,0-6.06658-1.23156-8.35987-3.19448z" fill="#9a9a9a" opacity=".99"/>
<path d="m298.1404,578.58001c-2.6243,2.56488-4.87814,6.53936-6.45707,11.03247 1.03748,3.37266 1.69195,6.96238 1.87161,10.50555h26.45214c-.63372-7.93908-3.63493-16.03827-7.7672-20.68177-1.88439,1.24736-4.04466,2.10769-6.42587,2.10769-2.91481,0-5.56803-1.16169-7.67361-2.96394z" fill="#9a9a9a" opacity=".99"/>
<path d="m274.16261,547.8073c-6.1694,0-11.1673,5.24361-11.1673,11.75698s4.9979,11.78993 11.1673,11.78993 11.1361-5.27654 11.1361-11.78993-4.9667-11.75698-11.1361-11.75698z" fill="#999898"/>
<path d="m-511.07622-367.39545h.44709a2.91841,2.91841 0 0,1 2.91841,2.91841v20.96133a2.91841,2.91841 0 0,1 -2.91841,2.91841h-.44709a2.91841,2.91841 0 0,1 -2.91841-2.91841v-20.96133a2.91841,2.91841 0 0,1 2.91841-2.91841" fill="#9b9b9b" opacity=".99" transform="matrix(-.825333,-.564646,.548414,-.836207,0,0)"/>
<path d="m305.82592,556.50155c-5.14823,0-9.31887,4.37569-9.31887,9.81096s4.17064,9.83844 9.31887,9.83844 9.29284-4.40318 9.29284-9.83844-4.14461-9.81096-9.29284-9.81096z" fill="#ff7f1a" opacity=".99"/>
<path d="m248.40362,552.69705c-5.60716,0-10.14958,4.76573-10.14958,10.68552s4.54242,10.71547 10.14958,10.71547 10.12121-4.7957 10.12121-10.71547-4.51406-10.68552-10.12121-10.68552z" fill="#ff7f1a"/>
<path d="m-51.42867-678.25348a2.86501,2.91841 0 0,1 2.86501,2.91841v17.62687a2.86501,2.91841 0 0,1 -2.86501,2.91841 2.86501,2.91841 0 0,1 -2.86501-2.91841v-17.62687a2.86501,2.91841 0 0,1 2.86501-2.91841" fill="#9b9b9b" opacity=".99" transform="matrix(.825333,-.564646,-.548414,-.836207,0,0)"/>
<path d="m288.12726,573.16039c-.54868-.005-1.10069.15865-1.59087.49399l-.4679.32933c-1.30714.89427-1.63532,2.69875-.74865,4.05074l5.14694,7.87092c.38609-.85077.81214-1.67564 1.24774-2.46995 .70345-1.28275 1.47692-2.48323 2.30832-3.58967l-3.52487-5.36805c-.55417-.84499-1.45623-1.30884-2.37071-1.31731z" fill="#9b9b9b" opacity=".99"/>
</g>
</svg>
